<?xml version="1.0" standalone="no"?>
<!DOCTYPE svg PUBLIC "-//W3C//DTD SVG 20010904//EN"
 "http://www.w3.org/TR/2001/REC-SVG-20010904/DTD/svg10.dtd">
<svg version="1.0" xmlns="http://www.w3.org/2000/svg"
 width="225.000000pt" height="225.000000pt" viewBox="0 0 225.000000 225.000000"
 preserveAspectRatio="xMidYMid meet">
<metadata>
Created by potrace 1.14, written by Peter Selinger 2001-2017
</metadata>
<g transform="translate(0.000000,225.000000) scale(0.100000,-0.100000)"
fill="#000000" stroke="none">
<path d="M520 1962 c-81 -27 -136 -58 -186 -104 -25 -23 -50 -38 -58 -35 -23
9 -81 -11 -105 -37 -30 -32 -38 -94 -17 -134 22 -43 53 -62 101 -62 90 0 145
77 113 159 l-15 39 37 11 c53 16 129 14 183 -5 49 -17 141 -96 135 -116 -2 -6
-28 -18 -58 -27 -30 -10 -66 -23 -79 -30 -37 -20 -111 -92 -137 -133 -57 -90
-79 -227 -53 -338 8 -35 7 -46 -3 -49 -7 -2 -28 -19 -45 -37 -28 -27 -33 -39
-33 -79 0 -40 5 -52 34 -81 29 -29 41 -34 80 -34 87 0 145 84 112 163 -7 19
-24 41 -36 50 -20 14 -22 22 -17 67 8 67 48 144 105 203 76 78 77 78 76 -16
-1 -52 -7 -96 -18 -121 -9 -21 -16 -50 -15 -65 0 -14 -10 -53 -24 -86 -14 -33
-32 -93 -40 -133 -13 -61 -22 -80 -51 -109 -66 -66 -61 -131 26 -333 61 -144
99 -190 169 -208 54 -14 106 -2 228 51 156 67 281 159 281 205 0 17 6 22 25
22 13 0 40 14 60 32 77 67 102 174 52 226 -21 22 -27 38 -27 73 0 25 4 49 8
54 5 6 16 30 25 55 13 35 27 51 62 72 68 41 74 91 15 127 l-31 18 37 33 c43
37 128 80 162 80 17 0 22 -6 22 -24 0 -41 -11 -56 -40 -56 -65 0 -113 -80 -86
-143 44 -106 195 -76 196 38 0 22 -4 46 -9 54 -6 10 0 33 17 70 15 31 27 57
28 59 1 1 14 -2 30 -8 49 -19 101 -60 129 -102 l27 -41 -22 -44 c-38 -75 -6
-152 70 -173 106 -29 190 89 128 180 -13 20 -37 39 -55 44 -29 9 -31 14 -42
75 -13 79 -67 194 -113 238 -18 18 -56 45 -85 61 -46 24 -57 37 -88 100 -58
116 -158 189 -297 218 -122 26 -231 -8 -325 -102 l-51 -51 -32 48 c-43 67
-121 133 -199 171 -85 41 -195 48 -281 20z m220 -24 c92 -28 191 -106 250
-197 27 -43 70 -149 70 -174 0 -5 -17 6 -37 24 -21 18 -65 45 -99 60 -43 20
-68 39 -83 62 -34 55 -107 116 -179 150 -68 32 -154 41 -227 25 -17 -4 -2 6
33 24 92 45 180 53 272 26z m-88 -100 c51 -23 158 -110 158 -127 0 -4 -19 -5
-42 -2 -34 3 -54 13 -94 51 -66 60 -141 85 -225 76 -33 -3 -73 -13 -89 -21
-17 -9 -30 -11 -30 -6 0 9 71 39 125 54 46 13 141 1 197 -25z m813 -9 l30 -13
-40 -3 c-22 -2 -73 -10 -113 -19 -60 -13 -84 -25 -144 -70 -40 -30 -79 -53
-88 -52 -64 13 43 128 153 164 49 16 158 12 202 -7z m-1240 -75 c-14 -26 -30
-53 -37 -61 -9 -11 -9 -19 2 -36 12 -20 12 -21 -2 -9 -49 40 -11 145 54 151 4
1 -4 -20 -17 -45z m94 17 c42 -40 43 -90 2 -132 -16 -16 -35 -29 -42 -29 -7 0
-4 6 7 14 10 8 20 25 20 38 1 13 4 43 7 68 l7 45 -11 -45 c-6 -25 -19 -52 -29
-60 -10 -8 -20 -24 -22 -34 -4 -23 -18 -29 -38 -16 -12 7 -12 12 0 35 10 18
11 28 3 36 -13 13 -4 42 23 84 21 32 35 32 73 -4z m1110 -128 l45 -26 -64 -18
c-36 -10 -66 -18 -67 -19 -2 0 -3 5 -3 10 0 17 28 80 36 80 4 0 28 -12 53 -27z
m-532 -13 c23 -7 63 -29 90 -50 40 -30 48 -42 47 -67 -2 -39 -27 -76 -62 -93
-15 -7 -34 -15 -42 -19 -21 -10 -59 12 -80 47 -29 48 -49 54 -111 36 -146 -43
-260 -167 -291 -315 -7 -33 -15 -59 -20 -59 -16 0 -30 89 -26 170 3 65 11 99
32 146 77 170 279 259 463 204z m419 -24 c-13 -37 -33 -66 -47 -66 -5 0 5 23
22 50 17 28 32 50 34 50 1 0 -3 -15 -9 -34z m324 -36 c30 -6 76 -21 104 -33
50 -23 121 -76 113 -83 -2 -3 -29 7 -60 21 -31 13 -94 32 -140 42 l-84 17
-116 -28 c-64 -16 -123 -26 -131 -23 -28 11 -17 38 22 54 93 40 194 52 292 33z
m-880 -124 c0 -8 -3 -21 -6 -30 -5 -13 -9 -12 -24 7 -17 20 -17 23 -2 29 26
10 32 9 32 -6z m1008 -51 c71 -32 134 -93 164 -162 25 -57 17 -66 -15 -15
-113 178 -359 191 -523 28 -27 -28 -63 -62 -78 -76 l-27 -24 6 40 c6 35 4 43
-24 70 l-31 30 48 36 c108 81 194 109 322 105 78 -3 107 -9 158 -32z m-1050
-61 c2 -43 7 -83 12 -88 5 -5 20 11 37 39 15 27 40 62 54 79 24 27 29 29 53
18 21 -9 26 -18 26 -48 0 -20 -5 -54 -12 -75 -10 -34 -9 -42 7 -59 l18 -20 22
20 c12 11 32 42 45 69 29 64 73 87 104 55 22 -21 20 -63 -4 -124 -22 -57 -15
-90 20 -90 27 0 49 36 56 92 6 41 11 49 32 55 31 7 75 -15 80 -42 2 -10 -4
-45 -14 -77 -9 -32 -14 -61 -10 -65 3 -4 30 16 59 44 79 77 113 87 138 42 8
-16 5 -25 -19 -47 -16 -15 -41 -35 -55 -44 -15 -11 -32 -38 -42 -68 -17 -51
-17 -51 -53 -44 -173 29 -605 168 -626 202 -3 5 4 33 15 63 15 39 20 67 15
102 -6 53 7 101 27 95 8 -3 13 -32 15 -84z m399 24 c-3 -8 -6 -5 -6 6 -1 11 2
17 5 13 3 -3 4 -12 1 -19z m-22 2 c3 -6 -1 -7 -9 -4 -18 7 -21 14 -7 14 6 0
13 -4 16 -10z m-158 -52 c-2 -13 -4 -5 -4 17 -1 22 1 32 4 23 2 -10 2 -28 0
-40z m-3 -44 c3 -8 2 -12 -4 -9 -6 3 -10 10 -10 16 0 14 7 11 14 -7z m196 -54
c0 -11 -4 -20 -9 -20 -5 0 -7 9 -4 20 3 11 7 20 9 20 2 0 4 -9 4 -20z m480 11
c0 -5 8 -8 17 -7 11 0 19 -7 21 -19 3 -29 -34 -85 -57 -85 -10 0 -21 -7 -25
-15 -8 -21 -33 -19 -46 5 -6 11 -7 20 -3 19 23 -4 33 3 33 21 0 12 12 33 28
48 28 27 13 19 -47 -26 l-30 -23 10 31 c6 17 21 37 32 45 23 16 67 20 67 6z
m31 -133 c-17 -16 -39 -28 -49 -28 -16 1 -16 1 1 11 9 5 17 14 17 19 0 4 12
27 28 50 l27 43 3 -34 c3 -27 -2 -39 -27 -61z m377 57 c15 -32 16 -92 2 -100
-6 -4 -9 -19 -8 -33 2 -21 -2 -28 -19 -30 -20 -3 -23 1 -23 27 0 16 -4 33 -10
36 -13 8 -13 54 1 94 13 38 41 41 57 6z m-913 5 c3 -5 1 -10 -4 -10 -6 0 -11
5 -11 10 0 6 2 10 4 10 3 0 8 -4 11 -10z m846 -12 c-4 -13 -11 -46 -15 -75 -5
-43 -4 -53 11 -62 10 -6 13 -11 6 -11 -20 0 -53 52 -53 85 0 31 32 85 50 85 6
0 6 -10 1 -22z m108 -2 c28 -30 31 -83 7 -117 -16 -22 -17 -22 -12 -2 4 12 2
24 -4 28 -5 3 -10 22 -10 41 0 20 -5 44 -10 55 -15 27 2 24 29 -5z m-1348 -40
c69 -30 309 -108 419 -136 47 -12 86 -23 88 -25 2 -2 -9 -49 -24 -104 -15 -56
-24 -104 -21 -107 12 -12 41 15 61 57 25 53 56 62 92 28 48 -45 17 -167 -55
-216 -39 -26 -58 -21 -78 21 l-14 31 7 -30 c11 -47 8 -75 -13 -104 -46 -63
-276 -187 -395 -212 -39 -9 -54 -7 -91 9 -59 26 -86 64 -147 210 -75 179 -77
254 -9 303 19 13 30 32 35 57 18 110 64 242 82 242 5 0 34 -11 63 -24z m-262
-47 c14 -41 14 -86 0 -91 -7 -2 -12 -17 -13 -33 -1 -23 -6 -30 -21 -30 -16 0
-19 6 -17 26 1 15 -5 32 -13 39 -16 13 -13 65 7 103 14 28 45 21 57 -14z m-74
-1 c-19 -84 -23 -113 -18 -122 3 -6 -1 -4 -10 4 -27 25 -30 71 -8 108 24 37
44 43 36 10z m114 -4 c26 -33 27 -84 4 -113 -18 -21 -18 -21 -21 33 -1 31 -7
67 -12 81 -12 33 3 32 29 -1z"/>
<path d="M674 1031 c-43 -26 -61 -55 -75 -116 -10 -46 -9 -57 9 -98 12 -26 27
-50 35 -53 8 -3 12 -15 9 -33 -9 -62 64 -131 138 -131 42 0 96 24 110 49 8 16
20 21 50 21 56 0 105 45 126 116 25 86 2 153 -62 180 -32 13 -39 13 -78 -4
-35 -16 -48 -30 -69 -73 -15 -29 -27 -61 -27 -70 0 -12 -6 -16 -20 -12 -18 5
-19 7 -4 36 11 21 15 48 12 90 -4 52 -9 64 -36 88 -38 34 -74 37 -118 10z
m107 -19 c25 -23 32 -38 36 -78 6 -70 -20 -117 -69 -125 -20 -3 -48 -13 -62
-22 -33 -22 -33 -22 -56 16 -41 67 -17 170 49 214 44 30 64 29 102 -5z m240
-62 c48 -26 64 -127 30 -190 -21 -41 -74 -80 -107 -80 -19 0 -25 8 -34 40 -6
23 -21 47 -35 56 -20 13 -23 21 -18 47 18 99 99 161 164 127z m-183 -190 c34
-21 43 -50 15 -50 -21 0 -83 36 -83 48 0 27 25 28 68 2z"/>
<path d="M715 950 c-3 -5 -15 -10 -26 -10 -15 0 -19 -7 -19 -30 0 -31 30 -56
38 -32 2 7 10 12 18 12 9 0 14 11 14 29 0 31 -14 49 -25 31z"/>
<path d="M966 875 c-3 -8 -15 -15 -26 -15 -16 0 -20 -7 -20 -30 0 -31 30 -56
38 -32 2 7 10 12 18 12 9 0 14 11 14 34 0 37 -14 56 -24 31z"/>
<path d="M1265 780 c-4 -6 3 -9 17 -7 34 3 32 -25 -5 -48 -22 -14 -33 -29 -35
-50 -4 -30 -3 -30 27 13 35 48 46 53 37 17 -9 -34 0 -31 20 6 21 41 6 79 -30
79 -14 0 -28 -4 -31 -10z"/>
<path d="M523 724 c-3 -9 -1 -19 4 -23 6 -3 16 -24 23 -46 73 -228 235 -314
395 -209 37 24 24 29 -16 5 -115 -67 -225 -40 -305 75 -19 28 -36 57 -37 65
-2 8 -5 19 -8 24 -20 33 -30 85 -19 105 9 17 8 20 -10 20 -11 0 -23 -7 -27
-16z"/>
<path d="M560 702 c0 -19 84 -85 146 -114 86 -40 189 -47 292 -21 39 11 72 17
72 13 0 -13 -66 -69 -95 -80 -28 -11 -29 -12 -11 -22 17 -9 27 -3 70 43 28 29
55 54 60 54 16 0 17 22 2 34 -13 11 -18 10 -30 -2 -24 -23 -114 -42 -202 -41
-68 0 -90 5 -146 31 -37 17 -87 50 -112 73 -25 24 -46 38 -46 32z"/>
<path d="M735 500 c19 -8 73 -14 64 -6 -2 2 -22 6 -44 9 -28 5 -34 4 -20 -3z"/>
</g>
</svg>
